# xmcd
#
# Track frame offsets:
#	150
#	16533
#	30508
#	44185
#	57891
#	72101
#	86530
#	102754
#	117693
#	134111
#	150915
#	166966
#	184771
#	200963
#	218848
#	235671
#	251985
#	268777
#	286376
#	305129
#	319979
#	336148
#
# Disc length: 4800 seconds
#
# Revision: 0
# Processed by: cddbd v1.4PL0 Copyright (c) Steve Scherf et al.
# Submitted via: EasyCDDAExtractor 4.6.9.1
#
DISCID=4d12be16
DTITLE=Alabama - For The Record - Disc 1
DYEAR=1998
DGENRE=Country
TTITLE0=Five O'Clock 500 - (previously unreleased)
TTITLE1=Keepin' Up - (previously unreleased)
TTITLE2=How Do You Fall In Love - (previously unreleased)
TTITLE3=Tennessee River
TTITLE4=Why Lady Why
TTITLE5=Old Flame
TTITLE6=Feels So Right
TTITLE7=Love In The First Degree
TTITLE8=Mountain Music
TTITLE9=Take Me Down
TTITLE10=Close Enough To Perfect
TTITLE11=Dixieland Delight
TTITLE12=The Closer You Get
TTITLE13=Lady Down On Love
TTITLE14=Roll On (Eighteen Wheeler)
TTITLE15=When We Make Love
TTITLE16=If You're Gonna Play In Texas (You Gotta Have A Fiddle In The Band)
TTITLE17=(There's A) Fire In The Night
TTITLE18=There's No Way
TTITLE19=Forty Hour Week (For A Livin')
TTITLE20=Can't Keep A Good Man Down
TTITLE21=She And I
EXTD=
EXTT0=
EXTT1=
EXTT2=
EXTT3=
EXTT4=
EXTT5=
EXTT6=
EXTT7=
EXTT8=
EXTT9=
EXTT10=
EXTT11=
EXTT12=
EXTT13=
EXTT14=
EXTT15=
EXTT16=
EXTT17=
EXTT18=
EXTT19=
EXTT20=
EXTT21=
PLAYORDER=
